<svg width="44" height="48" viewBox="0 0 44 48" fill="none" xmlns="http://www.w3.org/2000/svg">
<g clip-path="url(#clip0_1082_191)">
<path d="M14.1095 3.55273H5.83283C5.43481 3.55273 5.1123 3.87534 5.1123 4.27326C5.1123 4.67118 5.43481 4.99378 5.83283 4.99378H14.1095C14.5076 4.99378 14.8301 4.67118 14.8301 4.27326C14.8301 3.87534 14.5075 3.55273 14.1095 3.55273Z" fill="#D0A144"/>
<path d="M14.1095 6.87793H5.83283C5.43481 6.87793 5.1123 7.20053 5.1123 7.59845C5.1123 7.99638 5.43481 8.31898 5.83283 8.31898H14.1095C14.5076 8.31898 14.8301 7.99638 14.8301 7.59845C14.8301 7.20053 14.5075 6.87793 14.1095 6.87793Z" fill="#D0A144"/>
<path d="M43.1466 42.4708L27.8769 28.3214C28.5733 27.5497 29.2306 26.7702 29.8424 25.9872C31.0228 26.8142 32.6631 26.7052 33.7207 25.6549C34.9106 24.4731 34.9172 22.5535 33.7353 21.3634L27.3766 14.9611C26.1976 13.7739 24.2723 13.7674 23.0851 14.9464C22.1541 15.8711 21.9494 17.2546 22.4731 18.3812C19.5608 20.6094 16.591 23.5325 14.2537 26.5443C13.1524 26.0209 11.7623 26.1921 10.8138 27.1342C9.62397 28.3159 9.61706 30.2355 10.7992 31.4256L17.1579 37.8279C18.3385 39.0167 20.2592 39.0245 21.4493 37.8425C22.5064 36.7925 22.6266 35.1517 21.8081 33.9665C22.5971 33.3586 23.383 32.7051 24.1613 32.0121L38.2057 47.3779C39.1601 48.4219 40.791 48.4622 41.7954 47.4646L43.2087 46.0609C44.2115 45.065 44.1871 43.435 43.1466 42.4708ZM24.1006 15.9689C24.7256 15.3483 25.7364 15.3546 26.3543 15.9766L32.7129 22.379C33.3334 23.0038 33.3303 24.0118 32.7052 24.6324C32.0817 25.2517 31.0708 25.2481 30.4516 24.6247L24.093 18.2224C23.4738 17.599 23.4772 16.5881 24.1006 15.9689ZM23.3531 19.5224L28.7878 24.9944C26.5698 27.8534 23.7023 30.7028 20.8226 32.9053L15.388 27.4334C17.5491 24.6474 20.4046 21.7777 23.3531 19.5224ZM20.4339 36.8202C19.8096 37.4402 18.801 37.4375 18.1803 36.8125L11.8217 30.4102C11.2011 29.7854 11.2044 28.7773 11.8294 28.1567C12.4536 27.5367 13.4622 27.5395 14.0829 28.1644L20.4416 34.5667C21.0608 35.19 21.0573 36.2009 20.4339 36.8202ZM42.1932 45.0385L40.7799 46.4422C40.3455 46.8737 39.6606 46.8337 39.2694 46.4057L25.2221 31.0367C25.5049 30.769 25.7869 30.4979 26.0667 30.22C26.3483 29.9404 26.623 29.6585 26.8944 29.3757L42.1671 43.5278C42.6024 43.9312 42.6175 44.6171 42.1932 45.0385Z" fill="#D0A144"/>
<path d="M34.561 46.7131C34.4269 46.7352 34.2891 46.7465 34.1516 46.7465H3.98561C2.61373 46.7465 1.49769 45.6304 1.49769 44.2585V2.92897C1.49769 1.55719 2.61373 0.441048 3.98561 0.441048H27.4662C27.5633 0.441048 27.6588 0.450751 27.7525 0.466507V5.39902C27.7525 7.56549 29.5151 9.32799 31.6815 9.32799H36.614C36.6298 9.42185 36.6395 9.51725 36.6395 9.61428V34.7577C36.6395 35.1556 36.962 35.4782 37.36 35.4782C37.758 35.4782 38.0805 35.1556 38.0805 34.7577V9.61428C38.0805 8.77252 37.7527 7.98119 37.1577 7.38603L29.6945 -0.0769607C29.0994 -0.67221 28.3081 -1 27.4662 -1H3.98561C1.81923 -1 0.0566406 0.762594 0.0566406 2.92897V44.2584C0.0566406 46.4249 1.81923 48.1875 3.98561 48.1875H34.1516C34.3675 48.1875 34.5843 48.1697 34.796 48.1347C35.1885 48.0699 35.4543 47.699 35.3893 47.3063C35.3245 46.9138 34.9534 46.6475 34.561 46.7131ZM35.6206 7.88694H31.6815C30.3096 7.88694 29.1936 6.7708 29.1936 5.39902V1.46006L35.6206 7.88694Z" fill="#D0A144"/>
</g>
<defs>
<clipPath id="clip0_1082_191">
<rect width="44" height="49.1878" fill="white" transform="translate(0 -1)"/>
</clipPath>
</defs>
</svg>
